<svg width="150" height="150" fill="none" xmlns="http://www.w3.org/2000/svg">
    <path d="M0 75c0 41.421 33.578 75 74.999 75C116.423 150 150 116.421 150 75c0-41.422-33.577-75-75.001-75C33.579 0 0 33.578 0 75z" fill="#fff"/>
    <path fill-rule="evenodd" clip-rule="evenodd" d="M2 75c0 40.316 32.683 73 72.999 73C115.319 148 148 115.316 148 75c0-40.317-32.681-73-73.001-73C34.683 2 2 34.683 2 75zm72.999 75C33.579 150 0 116.421 0 75 0 33.579 33.578 0 74.999 0 116.423 0 150 33.578 150 75c0 41.421-33.577 75-75.001 75z" fill="#E8E8E8"/>
    <path d="M36 76.004c0-21.54 17.46-39 39-39s39 17.46 39 39c0 21.539-17.46 39-39 39s-39-17.461-39-39z" fill="#FFC700"/>
    <path d="M74.998 92.008c-13.5 0-19.84-9.888-19.96-10.36a1.316 1.316 0 0 1 .638-1.471 1.345 1.345 0 0 1 1.595.214c.047.047 5.21 5.617 17.727 5.617s17.677-5.57 17.728-5.62a1.361 1.361 0 0 1 1.6-.203c.517.295.778.89.632 1.462-.12.473-6.46 10.36-19.96 10.36zM64.998 76.004c2.21 0 4-2.463 4-5.5 0-3.038-1.79-5.5-4-5.5s-4 2.462-4 5.5c0 3.037 1.79 5.5 4 5.5zM83.998 76.004c2.21 0 4-2.463 4-5.5 0-3.038-1.79-5.5-4-5.5s-4 2.462-4 5.5c0 3.037 1.79 5.5 4 5.5z" fill="#402B00"/>
    <g filter="url(#a)">
        <path fill-rule="evenodd" clip-rule="evenodd" d="M48.47 46.575c-.005 0 .017-.027.077-.077a.341.341 0 0 1-.078.077zm3.147-1.571c.77-.272 1.672-.547 2.711-.816 5.096-1.315 12.406-2.184 20.671-2.184 8.265 0 15.576.87 20.67 2.184 1.04.269 1.942.544 2.712.816-.77.272-1.672.547-2.711.815-5.096 1.315-12.406 2.185-20.671 2.185-8.265 0-15.575-.87-20.67-2.185a32.818 32.818 0 0 1-2.712-.815zm49.912 1.57a.331.331 0 0 1-.077-.076c.059.05.081.076.077.077zm-.077-3.065a.331.331 0 0 1 .077-.076c.004 0-.018.026-.077.076zm-52.905 0c-.06-.05-.082-.075-.078-.076.004 0 .034.025.078.076zm3.282-9.003c6.125-1.58 14.314-2.502 23.17-2.502 8.856 0 17.045.921 23.17 2.502 3.024.78 5.83 1.793 7.998 3.116 1.877 1.145 4.832 3.496 4.832 7.382 0 3.886-2.955 6.237-4.832 7.382-2.168 1.323-4.974 2.336-7.998 3.116-6.125 1.58-14.314 2.502-23.17 2.502-8.856 0-17.045-.921-23.17-2.502-3.024-.78-5.83-1.793-7.998-3.116-1.877-1.145-4.832-3.496-4.832-7.382 0-3.886 2.955-6.237 4.832-7.382 2.168-1.323 4.974-2.336 7.998-3.116z" fill="url(#b)" fill-opacity=".7"/>
    </g>
    <path d="M98.502 44.974a38.482 38.482 0 0 0-23.5-7.97 38.481 38.481 0 0 0-23.5 7.97h47z" fill="#FFC700"/>
    <defs>
        <linearGradient id="b" x1="74.999" y1="45.004" x2="74.999" y2="69.975" gradientUnits="userSpaceOnUse">
            <stop stop-color="#14C7FF"/>
            <stop offset="1" stop-color="#14C7FF" stop-opacity="0"/>
        </linearGradient>
        <filter id="a" x="28.999" y="22.004" width="92" height="46" filterUnits="userSpaceOnUse" color-interpolation-filters="sRGB">
            <feFlood flood-opacity="0" result="BackgroundImageFix"/>
            <feGaussianBlur in="BackgroundImage" stdDeviation="5"/>
            <feComposite in2="SourceAlpha" operator="in" result="effect1_backgroundBlur"/>
            <feBlend in="SourceGraphic" in2="effect1_backgroundBlur" result="shape"/>
        </filter>
    </defs>
</svg>
