<svg width="150" height="150" fill="none" xmlns="http://www.w3.org/2000/svg">
    <path d="M0 75c0 41.421 33.578 75 74.999 75C116.423 150 150 116.421 150 75c0-41.422-33.577-75-75.001-75C33.579 0 0 33.578 0 75z" fill="#fff"/>
    <path fill-rule="evenodd" clip-rule="evenodd" d="M2 75c0 40.316 32.683 73 72.999 73C115.319 148 148 115.316 148 75c0-40.317-32.681-73-73.001-73C34.683 2 2 34.683 2 75zm72.999 75C33.579 150 0 116.421 0 75 0 33.579 33.578 0 74.999 0 116.423 0 150 33.578 150 75c0 41.421-33.577 75-75.001 75z" fill="#E8E8E8"/>
    <path d="M36 75c0-21.54 17.46-39 39-39s39 17.46 39 39-17.46 39-39 39-39-17.46-39-39z" fill="url(#a)"/>
    <path d="M75 80c11.475 0 16.864 8.24 16.966 8.634.124.48-.098.979-.542 1.225a1.17 1.17 0 0 1-.558.141c-.29 0-.58-.11-.797-.319C90.028 89.641 85.638 85 75 85c-10.64 0-15.025 4.641-15.068 4.683-.365.343-.918.41-1.36.17a1.084 1.084 0 0 1-.538-1.22C58.136 88.24 63.525 80 75 80zM64.998 76.004c2.21 0 4-2.463 4-5.5 0-3.038-1.79-5.5-4-5.5s-4 2.462-4 5.5c0 3.037 1.79 5.5 4 5.5zM83.998 76.004c2.21 0 4-2.463 4-5.5 0-3.038-1.79-5.5-4-5.5s-4 2.462-4 5.5c0 3.037 1.79 5.5 4 5.5z" fill="#402B00"/>
    <path d="M59 64.099s11.5 4.238 17.684-3.097c1.016-1.206 1.728-2.744 1.517-4.306-.162-1.191-.805-2.44-2.722-2.696-4.595 0-3.505 5.05-3.505 5.05s1.166 7.445 10.424 6.924A14.247 14.247 0 0 0 90 63.237" stroke="#402B00" stroke-width="4" stroke-miterlimit="10" stroke-linecap="round"/>
    <defs>
        <linearGradient id="a" x1="75" y1="51.409" x2="75" y2="84.5" gradientUnits="userSpaceOnUse">
            <stop stop-color="#FF5833"/>
            <stop offset="1" stop-color="#FFC700"/>
        </linearGradient>
    </defs>
</svg>
