<svg xmlns="http://www.w3.org/2000/svg" width="24" height="24" fill="none" viewBox="0 0 24 24">
    <path fill="#BFC3CB" d="M3 5c0-1.105.895-2 2-2h14c1.105 0 2 .895 2 2v14c0 1.105-.895 2-2 2H5c-1.105 0-2-.895-2-2V5zm16 0H5v14h14V5z"/>
    <path fill="#BFC3CB" d="M9.282 10.384c.39-.39 1.023-.39 1.414 0 .39.39.39 1.024 0 1.414l-2.558 2.558c-.39.39-1.024.39-1.414 0-.39-.39-.39-1.024 0-1.414l2.558-2.558zM15.832 8.951c.39-.39 1.024-.39 1.414 0 .39.39.39 1.024 0 1.415l-3.991 3.99c-.39.391-1.024.391-1.414 0-.39-.39-.39-1.023 0-1.413l3.99-3.992z"/>
    <path fill="#BFC3CB" d="M13.255 12.942c.39.39.39 1.024 0 1.415-.39.39-1.024.39-1.414 0l-2.558-2.558c-.39-.39-.39-1.024 0-1.415.39-.39 1.024-.39 1.414 0l2.558 2.558z"/>
</svg>
